{"title":"Guldur.Guldur.08.05.2014.DVBRip.XviD-TORA.avi","uid":10116878,"size":764656298,"categoryP":"video","categoryS":"tv_shows","magnet":"?xt=urn:btih:448aeeecbbd4dac78c268aa6b1bcf413a47d0002&amp;dn=Guldur.Guldur.08.05.2014.DVBRip.XviD-TORA.avi&amp;tr=udp%3A%2F%2Ftracker.openbittorrent.com%3A80&amp;tr=udp%3A%2F%2Fopen.demonii.com%3A1337&amp;tr=udp%3A%2F%2Ftracker.coppersurfer.tk%3A6969&amp;tr=udp%3A%2F%2Fexodus.desync.com%3A6969","seeders":0,"leechers":1,"uploader":"pBtu6RHs","files":-1,"time":1399600828,"description":"General\nComplete name                            : Guldur.Guldur.08.05.2014.DVBRip.XviD-TORA.avi\nFormat                                   : AVI\nFormat/Info                              : Audio Video Interleave\nFile size                                : 729 MiB\nDuration                                 : 1h 38mn\nOverall bit rate                         : 1 031 Kbps\nWriting library                          : MPlayer\n\nVideo\nID                                       : 0\nFormat                                   : MPEG-4 Visual\nFormat profile                           : Advanced Simple@L5\nFormat settings, BVOP                    : 2\nFormat settings, QPel                    : No\nFormat settings, GMC                     : No warppoints\nFormat settings, Matrix                  : Default (H.263)\nMuxing mode                              : Packed bitstream\nCodec ID                                 : XVID\nCodec ID/Hint                            : XviD\nDuration                                 : 1h 38mn\nBit rate                                 : 898 Kbps\nWidth                                    : 720 pixels\nHeight                                   : 400 pixels\nDisplay aspect ratio                     : 16:9\nFrame rate                               : 25.000 fps\nColor space                              : YUV\nChroma subsampling                       : 4:2:0\nBit depth                                : 8 bits\nScan type                                : Progressive\nCompression mode                         : Lossy\nBits/(Pixel*Frame)                       : 0.125\nStream size                              : 635 MiB (87%)\nWriting library                          : XviD 63\n\nAudio\nID                                       : 1\nFormat                                   : MPEG Audio\nFormat version                           : Version 1\nFormat profile                           : Layer 3\nMode                                     : Joint stereo\nMode extension                           : MS Stereo\nCodec ID                                 : 55\nCodec ID/Hint                            : MP3\nDuration                                 : 1h 38mn\nBit rate mode                            : Constant\nBit rate                                 : 128 Kbps\nChannel(s)                               : 2 channels\nSampling rate                            : 48.0 KHz\nCompression mode                         : Lossy\nStream size                              : 90.5 MiB (12%)\nAlignment                                : Aligned on interleaves\nInterleave, duration                     : 480 ms (12.00 video frames)\nInterleave, preload duration             : 960 ms\n","torrent":{"xt":"urn:btih:448aeeecbbd4dac78c268aa6b1bcf413a47d0002","amp;dn":"Guldur.Guldur.08.05.2014.DVBRip.XviD-TORA.avi","amp;tr":["udp%3A%2F%2Ftracker.openbittorrent.com%3A80","udp%3A%2F%2Fopen.demonii.com%3A1337","udp%3A%2F%2Ftracker.coppersurfer.tk%3A6969","udp%3A%2F%2Fexodus.desync.com%3A6969"],"infoHash":"448aeeecbbd4dac78c268aa6b1bcf413a47d0002","infoHashBuffer":{"type":"Buffer","data":[68,138,238,236,187,212,218,199,140,38,138,166,177,188,244,19,164,125,0,2]},"announce":[],"urlList":[]}}